<?xml version="1.0" encoding="UTF-8"?>
<svg width="575px" height="355px" viewBox="0 0 575 355" version="1.1" xmlns="http://www.w3.org/2000/svg" xmlns:xlink="http://www.w3.org/1999/xlink">
    <!-- Generator: Sketch 52 (66869) - http://www.bohemiancoding.com/sketch -->
    <title>Group 39</title>
    <desc>Created with Sketch.</desc>
    <g id="Page-1" stroke="none" stroke-width="1" fill="none" fill-rule="evenodd">
        <g id="Product---Cloud-Server" transform="translate(-744.000000, -1896.000000)" fill-rule="nonzero">
            <g id="Group-13" transform="translate(0.000000, 1796.000000)">
                <g id="Group-39" transform="translate(744.000000, 100.000000)">
                    <g id="Group-27" transform="translate(0.000000, 227.000000)">
                        <rect id="Rectangle-29-Copy-2" fill="#E2E2EB" x="0" y="0" width="63" height="128" rx="10"></rect>
                        <path d="M34,0 L149,0 C154.522847,-1.01453063e-15 159,4.4771525 159,10 L159,118 C159,123.522847 154.522847,128 149,128 L34,128 C28.4771525,128 24,123.522847 24,118 L24,10 C24,4.4771525 28.4771525,1.01453063e-15 34,0 Z" id="Rectangle-29-Copy-3" fill="#FFFFFF"></path>
                        <g id="Group-26" transform="translate(48.000000, 43.000000)" fill="#E2E2EB">
                            <rect id="Rectangle-6-Copy-5" x="0" y="45" width="19" height="19" rx="9.5"></rect>
                            <rect id="Rectangle-6" x="0" y="0" width="19" height="5" rx="2.5"></rect>
                            <rect id="Rectangle-6" x="0" y="10" width="19" height="5" rx="2.5"></rect>
                            <rect id="Rectangle-6" x="0" y="20" width="19" height="5" rx="2.5"></rect>
                            <rect id="Rectangle-6" x="34" y="39" width="19" height="5" rx="2.5"></rect>
                            <rect id="Rectangle-6" x="34" y="49" width="19" height="5" rx="2.5"></rect>
                            <rect id="Rectangle-6" x="34" y="59" width="19" height="5" rx="2.5"></rect>
                            <rect id="Rectangle-6-Copy-5" x="68" y="45" width="19" height="19" rx="9.5"></rect>
                            <rect id="Rectangle-6" x="68" y="0" width="19" height="5" rx="2.5"></rect>
                            <rect id="Rectangle-6" x="68" y="10" width="19" height="5" rx="2.5"></rect>
                            <rect id="Rectangle-6" x="68" y="20" width="19" height="5" rx="2.5"></rect>
                        </g>
                    </g>
                    <g id="Group-28" transform="translate(209.000000, 210.000000)">
                        <rect id="Rectangle-29-Copy-2" fill="#E2E2EB" x="0" y="0" width="63" height="145" rx="10"></rect>
                        <path d="M34,0 L148,0 C153.522847,8.7960173e-15 158,4.4771525 158,10 L158,135 C158,140.522847 153.522847,145 148,145 L34,145 C28.4771525,145 24,140.522847 24,135 L24,10 C24,4.4771525 28.4771525,8.11995798e-15 34,7.10542736e-15 Z" id="Rectangle-29-Copy-3" fill="#FFFFFF"></path>
                        <g id="Group-21" transform="translate(48.000000, 22.000000)" fill="#E2E2EB">
                            <rect id="Rectangle-6-Copy-4" x="0" y="0" width="19" height="19" rx="9.5"></rect>
                            <rect id="Rectangle-6-Copy-5" x="0" y="83" width="19" height="19" rx="9.5"></rect>
                            <rect id="Rectangle-6" x="0" y="38" width="19" height="5" rx="2.5"></rect>
                            <rect id="Rectangle-6" x="0" y="48" width="19" height="5" rx="2.5"></rect>
                            <rect id="Rectangle-6" x="0" y="58" width="19" height="5" rx="2.5"></rect>
                            <rect id="Rectangle-6-Copy-4" x="34" y="0" width="19" height="19" rx="9.5"></rect>
                            <rect id="Rectangle-6" x="34" y="77" width="19" height="5" rx="2.5"></rect>
                            <rect id="Rectangle-6" x="34" y="87" width="19" height="5" rx="2.5"></rect>
                            <rect id="Rectangle-6" x="34" y="97" width="19" height="5" rx="2.5"></rect>
                            <rect id="Rectangle-6-Copy-4" x="68" y="0" width="19" height="19" rx="9.5"></rect>
                            <rect id="Rectangle-6-Copy-5" x="68" y="83" width="19" height="19" rx="9.5"></rect>
                            <rect id="Rectangle-6" x="68" y="38" width="19" height="5" rx="2.5"></rect>
                            <rect id="Rectangle-6" x="68" y="48" width="19" height="5" rx="2.5"></rect>
                            <rect id="Rectangle-6" x="68" y="58" width="19" height="5" rx="2.5"></rect>
                        </g>
                    </g>
                    <g id="Group-29" transform="translate(417.000000, 0.000000)">
                        <g id="Group-31">
                            <rect id="Rectangle-29-Copy" fill="#1B20E2" x="0" y="51" width="118" height="304" rx="10"></rect>
                            <path d="M34,51 L148,51 C153.522847,51 158,55.4771525 158,61 L158,345 C158,350.522847 153.522847,355 148,355 L34,355 C28.4771525,355 24,350.522847 24,345 L24,61 C24,55.4771525 28.4771525,51 34,51 Z" id="Rectangle-29" fill="#2B30FF"></path>
                            <g id="Group-25" transform="translate(48.000000, 75.000000)" fill="#1818BF">
                                <rect id="Rectangle-6" x="0" y="0" width="86" height="18" rx="9"></rect>
                                <rect id="Rectangle-6-Copy" x="0" y="83" width="86" height="18" rx="9"></rect>
                                <rect id="Rectangle-6-Copy-2" x="0" y="155" width="86" height="18" rx="9"></rect>
                                <rect id="Rectangle-6-Copy-3" x="0" y="238" width="86" height="18" rx="9"></rect>
                                <rect id="Rectangle-6" x="0" y="38" width="57" height="5" rx="2.5"></rect>
                                <circle id="Oval" cx="81.5" cy="50.5" r="4.5"></circle>
                                <rect id="Rectangle-6" x="0" y="48" width="57" height="5" rx="2.5"></rect>
                                <rect id="Rectangle-6" x="0" y="58" width="57" height="5" rx="2.5"></rect>
                                <path d="M2.5,121 L83.5,121 C84.8807119,121 86,122.119288 86,123.5 L86,123.5 C86,124.880712 84.8807119,126 83.5,126 L2.5,126 C1.11928813,126 1.69088438e-16,124.880712 0,123.5 L0,123.5 C-1.69088438e-16,122.119288 1.11928813,121 2.5,121 Z" id="Rectangle-6"></path>
                                <path d="M2.5,131 L83.5,131 C84.8807119,131 86,132.119288 86,133.5 L86,133.5 C86,134.880712 84.8807119,136 83.5,136 L2.5,136 C1.11928813,136 1.69088438e-16,134.880712 0,133.5 L0,133.5 C-1.69088438e-16,132.119288 1.11928813,131 2.5,131 Z" id="Rectangle-6"></path>
                                <rect id="Rectangle-6" x="29" y="193" width="57" height="5" rx="2.5"></rect>
                                <circle id="Oval" cx="4.5" cy="205.5" r="4.5"></circle>
                                <rect id="Rectangle-6" x="29" y="203" width="57" height="5" rx="2.5"></rect>
                                <rect id="Rectangle-6" x="29" y="213" width="57" height="5" rx="2.5"></rect>
                            </g>
                            <g id="Group-30" transform="translate(33.000000, 0.000000)" fill="#FFFFFF">
                                <circle id="Oval-Copy" cx="89.5" cy="16.5" r="4.5"></circle>
                                <circle id="Oval-Copy-2" cx="47" cy="9" r="9"></circle>
                                <circle id="Oval-Copy-3" cx="4.5" cy="16.5" r="4.5"></circle>
                                <path d="M6.62471486,27.7606216 L11.5,32 C18.1284105,37.7638352 27.9594903,37.8670915 34.7075007,32.2437494 L44.4392624,24.133948 C45.9226462,22.8977948 48.0773538,22.8977948 49.5607376,24.133948 L59.2924993,32.2437494 C66.0405097,37.8670915 75.8715895,37.7638352 82.5,32 L87.3752851,27.7606216 C89.0423136,26.3110316 91.5688321,26.4873004 93.0184221,28.1543288 C93.6513997,28.8822531 94,29.8144016 94,30.7790437 L94,51 L0,51 L-1.33226763e-15,30.7790437 C-1.60280913e-15,28.5699047 1.790861,26.7790437 4,26.7790437 C4.96464215,26.7790437 5.89679057,27.127644 6.62471486,27.7606216 Z" id="Combined-Shape"></path>
                            </g>
                        </g>
                    </g>
                </g>
            </g>
        </g>
    </g>
</svg>